<svg width="20" height="21" viewBox="0 0 20 21" fill="none" xmlns="http://www.w3.org/2000/svg">
<path d="M10 20.2891C8.64583 20.2891 7.35026 20.0254 6.11328 19.498C4.8763 18.9707 3.81185 18.2611 2.91992 17.3691C2.02799 16.4772 1.31836 15.4128 0.791016 14.1758C0.263672 12.9388 0 11.6432 0 10.2891C0 8.9349 0.263672 7.63932 0.791016 6.40234C1.31836 5.16536 2.02799 4.10091 2.91992 3.20898C3.81185 2.31706 4.8763 1.60742 6.11328 1.08008C7.35026 0.552734 8.64583 0.289062 10 0.289062C11.3542 0.289062 12.6497 0.552734 13.8867 1.08008C15.1237 1.60742 16.1882 2.31706 17.0801 3.20898C17.972 4.10091 18.6816 5.16536 19.209 6.40234C19.7363 7.63932 20 8.9349 20 10.2891C20 11.6432 19.7363 12.9388 19.209 14.1758C18.6816 15.4128 17.972 16.4772 17.0801 17.3691C16.1882 18.2611 15.1237 18.9707 13.8867 19.498C12.6497 20.0254 11.3542 20.2891 10 20.2891ZM15 6.53906C15 6.20052 14.8796 5.90755 14.6387 5.66016C14.3978 5.41276 14.1016 5.28906 13.75 5.28906H6.25C5.91146 5.28906 5.61849 5.41276 5.37109 5.66016C5.1237 5.90755 5 6.20052 5 6.53906V7.78906H7.22656C7.98177 6.95573 8.90625 6.53906 10 6.53906C11.0938 6.53906 12.0182 6.95573 12.7734 7.78906H15V6.53906ZM7.5 10.2891C7.5 10.9792 7.74414 11.5684 8.23242 12.0566C8.7207 12.5449 9.3099 12.7891 10 12.7891C10.6901 12.7891 11.2793 12.5449 11.7676 12.0566C12.2559 11.5684 12.5 10.9792 12.5 10.2891C12.5 9.59896 12.2559 9.00977 11.7676 8.52148C11.2793 8.0332 10.6901 7.78906 10 7.78906C9.3099 7.78906 8.7207 8.0332 8.23242 8.52148C7.74414 9.00977 7.5 9.59896 7.5 10.2891ZM15 9.03906H13.5156C13.6719 9.46875 13.75 9.88542 13.75 10.2891C13.75 11.3307 13.3854 12.2161 12.6562 12.9453C11.9271 13.6745 11.0417 14.0391 10 14.0391C8.95833 14.0391 8.07292 13.6745 7.34375 12.9453C6.61458 12.2161 6.25 11.3307 6.25 10.2891C6.25 9.88542 6.32812 9.46875 6.48438 9.03906H5V14.0391C5 14.3906 5.12044 14.6868 5.36133 14.9277C5.60221 15.1686 5.89844 15.2891 6.25 15.2891H13.75C14.1016 15.2891 14.3978 15.1686 14.6387 14.9277C14.8796 14.6868 15 14.3906 15 14.0391V9.03906Z" fill="#BDBDBD"/>
</svg>
