<svg width="21" height="21" viewBox="0 0 21 21" fill="none" xmlns="http://www.w3.org/2000/svg">
<path d="M12.1831 10.6136L9.82477 9.51323C9.61897 9.41768 9.44992 9.52478 9.44992 9.75263V11.8253C9.44992 12.0532 9.61897 12.1603 9.82477 12.0647L12.182 10.9643C12.3889 10.8677 12.3889 10.7102 12.1831 10.6136ZM10.4999 0.708984C4.93282 0.708984 0.419922 5.22188 0.419922 10.789C0.419922 16.3561 4.93282 20.869 10.4999 20.869C16.067 20.869 20.5799 16.3561 20.5799 10.789C20.5799 5.22188 16.067 0.708984 10.4999 0.708984ZM10.4999 14.884C5.34022 14.884 5.24992 14.4188 5.24992 10.789C5.24992 7.15913 5.34022 6.69398 10.4999 6.69398C15.6596 6.69398 15.7499 7.15913 15.7499 10.789C15.7499 14.4188 15.6596 14.884 10.4999 14.884Z" fill="#BDBDBD"/>
</svg>
